<svg version="1.1"
	 xmlns="http://www.w3.org/2000/svg" xmlns:xlink="http://www.w3.org/1999/xlink" xmlns:a="http://ns.adobe.com/AdobeSVGViewerExtensions/3.0/" x="0px" y="0px" width="11.8px" height="11.8px" viewBox="0 0 11.8 11.8" enable-background="new 0 0 11.8 11.8" xml:space="preserve">
	<path d="M4.1,3.7L3.6,2.8c0.6-0.3,1.3-0.5,1.9-0.5c1,0,1.8,0.3,2.4,1c0.6,0.6,0.9,1.5,0.9,2.6c0,1.1-0.3,2-0.8,2.6 C7.4,9.1,6.6,9.4,5.6,9.4c-0.4,0-0.7,0-0.9-0.1C4.4,9.3,4.2,9.2,3.9,9.1v-1c0.7,0.2,1.2,0.4,1.6,0.4c0.7,0,1.2-0.2,1.5-0.6 c0.3-0.4,0.5-1.1,0.5-1.9c0-0.8-0.2-1.4-0.5-1.9S6.2,3.3,5.6,3.3C5.1,3.3,4.6,3.4,4.1,3.7z"/>
	<path d="M0,5.9c0,3.2,2.6,5.9,5.9,5.9s5.9-2.6,5.9-5.9C11.8,2.6,9.1,0,5.9,0C2.6,0,0,2.6,0,5.9z M0.8,5.9C0.8,3,3,0.8,5.9,0.8 S11,3,11,5.9C11,8.7,8.7,11,5.9,11S0.8,8.7,0.8,5.9z"/>
</svg>
